<?xml version="1.0" encoding="UTF-8"?>
<svg id="Capa_2" data-name="Capa 2" xmlns="http://www.w3.org/2000/svg" viewBox="0 0 62.17 59.08">
  <defs>
    <style>
      .cls-1 {
        fill: #e11d48;
      }

      .cls-2 {
        fill: #0b0b14;
      }
    </style>
  </defs>
  <g id="MESA_5" data-name="MESA 5">
    <g>
      <path class="cls-1" d="M.1,58.29l-.1-43.94h9.47v31.27L47.77,12.02h14.4L9.47,58.29H.1Z"/>
      <g>
        <path class="cls-2" d="M4.3,0C2.59,0,1.42.02,0,.15v7.77c1.43-.13,2.86-.22,4.3-.22,10.81,0,20.77,3.71,28.68,9.92l5.87-5.14C29.45,4.7,17.42,0,4.3,0Z"/>
        <path class="cls-2" d="M46.01,33.59c3.11,6.24,4.87,13.26,4.87,20.69,0,1.59-.08,3.19-.24,4.77l7.66.03c.19-1.83.28-2.96.28-4.8,0-9.38-2.39-18.22-6.6-25.92l-5.96,5.23Z"/>
        <path class="cls-2" d="M51.96,28.33l-5.97,5.22s.01.03.02.04l5.96-5.23s0-.01-.01-.02Z"/>
      </g>
    </g>
  </g>
</svg>